<svg width="24" height="24" viewBox="0 0 24 24" fill="none" xmlns="http://www.w3.org/2000/svg">
<g clip-path="url(#clip0_78_1878)">
<mask id="mask0_78_1878" style="mask-type:luminance" maskUnits="userSpaceOnUse" x="0" y="0" width="24" height="24">
<path d="M24 0H0V24H24V0Z" fill="white"/>
</mask>
<g mask="url(#mask0_78_1878)">
<path d="M4.66009 23.0802C4.25009 23.0802 3.91009 22.8002 3.83009 22.4102L3.60009 21.4302C3.50009 21.0002 3.16009 20.6602 2.74009 20.5602L1.75009 20.3302C1.36009 20.2502 1.09009 19.9002 1.09009 19.5002C1.09009 19.0902 1.37009 18.7502 1.77009 18.6702L2.74009 18.4402C3.17009 18.3402 3.51009 18.0002 3.61009 17.5802L3.84009 16.5902C3.92009 16.2102 4.27009 15.9302 4.67009 15.9302C5.08009 15.9302 5.42009 16.2102 5.50009 16.6002L5.73009 17.5802C5.83009 18.0102 6.17009 18.3502 6.59009 18.4502L7.58009 18.6802C7.96009 18.7602 8.24009 19.1102 8.24009 19.5102C8.24009 19.9102 7.97009 20.2602 7.58009 20.3402L6.59009 20.5702C6.16009 20.6702 5.82009 21.0102 5.72009 21.4302L5.49009 22.4202C5.41009 22.8002 5.06009 23.0802 4.66009 23.0802ZM3.98009 19.5102C4.25009 19.6902 4.48009 19.9302 4.66009 20.1902C4.84009 19.9202 5.07009 19.6902 5.34009 19.5102C5.07009 19.3302 4.84009 19.0902 4.66009 18.8302C4.48009 19.0902 4.25009 19.3302 3.98009 19.5102Z" fill="#1F1F1F"/>
<path d="M9.08006 11.62C6.21675 11.62 3.81006 9.3354 3.81006 6.44C3.81006 3.63 6.14006 1.25 9.00006 1.25C11.8601 1.25 14.1901 3.58 14.1901 6.44C14.1802 9.20933 11.864 11.62 9.08006 11.62ZM9.00006 2.75C6.97006 2.75 5.31006 4.41 5.31006 6.44C5.31006 8.4917 6.972 10.1026 9.00006 10.1125C11.0143 10.1224 12.6799 8.45879 12.6901 6.44C12.6901 4.41 11.0301 2.75 9.00006 2.75Z" fill="#1F1F1F"/>
<path d="M16.5701 11.76C16.1701 11.8 15.6201 11.5 15.5801 11.09C15.5401 10.68 15.7901 10.31 16.2001 10.26C16.4357 10.2404 16.6631 10.2627 16.8976 10.2209C18.1921 9.98996 19.1601 8.86462 19.1601 7.51001C19.1601 6.04001 17.9301 4.76001 16.4101 4.76001C16.0001 4.76001 15.6601 4.42001 15.6601 4.01001C15.6601 3.60001 16.0001 3.26001 16.4101 3.26001C18.7501 3.26001 20.6601 5.17001 20.6601 7.51001C20.6601 9.85001 18.8601 11.67 16.5701 11.76C16.6162 11.76 16.5294 11.76 16.5701 11.76Z" fill="#1F1F1F"/>
<path d="M9.17019 22.5699C9.11019 22.5699 9.05019 22.5599 8.99019 22.5599C8.58019 22.5599 8.25019 22.2099 8.25019 21.7999C8.25019 21.3899 8.63019 21.0799 9.01019 21.0599C10.7802 21.0899 12.5202 20.6299 13.7502 19.8099C14.7102 19.1699 15.2302 18.3499 15.2302 17.4899C15.2302 16.6399 14.7002 15.8199 13.7502 15.1899C12.5202 14.3699 10.8002 13.9099 9.01019 13.9399C8.08019 13.9599 7.15019 14.0999 6.32019 14.3699C5.97019 14.4799 5.64019 14.6099 5.33019 14.7599C4.96019 14.9399 4.51019 14.7799 4.33019 14.4099C4.15019 14.0399 4.31019 13.5899 4.68019 13.4099C5.05019 13.2299 5.45019 13.0699 5.86019 12.9399C6.84019 12.6299 7.89019 12.4599 8.98019 12.4399C11.1102 12.3899 13.0802 12.9399 14.5802 13.9399C15.9602 14.8599 16.7302 16.1199 16.7302 17.4899C16.7302 18.8599 15.9702 20.1299 14.5802 21.0599C13.1202 22.0299 11.2102 22.5699 9.17019 22.5699Z" fill="#1F1F1F"/>
<path d="M18.3402 20.75C17.9902 20.75 17.6802 20.51 17.6102 20.15C17.5302 19.74 17.7902 19.35 18.1902 19.26C18.8202 19.13 19.4002 18.88 19.8502 18.53C20.4202 18.1 20.7302 17.56 20.7302 16.99C20.7302 16.42 20.4202 15.88 19.8602 15.45C19.4202 15.11 18.8702 14.87 18.2202 14.72C17.8202 14.63 17.5602 14.23 17.6502 13.82C17.7402 13.42 18.1402 13.16 18.5502 13.25C19.4102 13.44 20.1602 13.78 20.7702 14.25C21.7002 14.95 22.2302 15.94 22.2302 16.98C22.2302 18.02 21.6902 19.01 20.7602 19.71C20.3366 20.038 19.8382 20.3053 19.2907 20.4959C19.0107 20.5934 18.6416 20.75 18.3402 20.75Z" fill="#1F1F1F"/>
</g>
</g>
<defs>
<clipPath id="clip0_78_1878">
<rect width="24" height="24" fill="white"/>
</clipPath>
</defs>
</svg>
